<svg width="195" height="32" viewBox="0 0 195 32" fill="none" xmlns="http://www.w3.org/2000/svg">
    <path
        d="M28.897 24.7811C28.8998 24.3447 29.0467 23.9216 29.3148 23.5779L20.217 8.11169C20.1006 8.12572 19.9829 8.12572 19.8665 8.11169L16.1737 17.9943C16.8275 18.3872 17.3424 18.9753 17.6463 19.6764C17.9502 20.3775 18.0278 21.1564 17.8682 21.9039C17.7087 22.6515 17.3201 23.3303 16.7567 23.8451C16.1933 24.36 15.4835 24.6853 14.7267 24.7753C13.9698 24.8653 13.2039 24.7155 12.5361 24.347C11.8684 23.9785 11.3322 23.4098 11.0029 22.7204C10.6735 22.0309 10.5674 21.2555 10.6994 20.5025C10.8314 19.7496 11.195 19.057 11.7391 18.5216C10.7821 16.9674 9.7309 15.4132 8.70638 13.8574H8.05988L1.53637 23.6588C1.77207 23.9852 1.89937 24.3778 1.90023 24.7808C1.90049 25.2915 1.70206 25.7821 1.34716 26.1482C0.992263 26.5144 0.508921 26.7271 0 26.7412L0 29.2829C0 29.7093 0.168876 30.1183 0.469476 30.4198C0.770077 30.7213 1.17778 30.8907 1.60289 30.8907H29.1935C29.6186 30.8907 30.0263 30.7213 30.3269 30.4198C30.6275 30.1183 30.7964 29.7093 30.7964 29.2829V26.7412C30.2875 26.7272 29.8041 26.5145 29.4491 26.1484C29.0942 25.7823 28.8957 25.2917 28.8959 24.7811"
        fill="white" />
    <path
        d="M6.91435 13.0867C6.7379 12.812 6.64004 12.4939 6.63143 12.1673C6.66982 11.7259 6.87174 11.315 7.19736 11.0156C7.52298 10.7163 7.94864 10.5502 8.39034 10.5502C8.83204 10.5502 9.2577 10.7163 9.58332 11.0156C9.90894 11.315 10.1109 11.7259 10.1493 12.1673C10.1506 12.5101 10.0471 12.8451 9.85271 13.1271C10.8906 14.6813 11.9148 16.2355 12.9391 17.7914C13.3653 17.6086 13.8233 17.5122 14.2868 17.5076C14.484 17.487 14.6828 17.487 14.8799 17.5076L18.4784 7.66544C18.2237 7.44777 18.0278 7.16934 17.9085 6.85579C17.7892 6.54223 17.7505 6.20362 17.7959 5.87111C17.8412 5.5386 17.9693 5.22288 18.1682 4.95301C18.3671 4.68315 18.6304 4.46779 18.934 4.32678C19.2377 4.18576 19.5718 4.12361 19.9056 4.14605C20.2394 4.16849 20.5623 4.2748 20.8444 4.45518C21.1266 4.63557 21.3589 4.88425 21.5202 5.17832C21.6814 5.4724 21.7663 5.80243 21.767 6.13804C21.7642 6.59951 21.6077 7.0468 21.3222 7.40873L30.4603 22.8476H30.7432V1.6078C30.7434 1.19051 30.5819 0.789476 30.2928 0.489449C30.0036 0.189423 29.6095 0.0139096 29.1938 0L1.60289 0C1.17778 0 0.770077 0.169392 0.469476 0.470913C0.168876 0.772434 0 1.18138 0 1.6078L0 22.8339H0.390839L6.91435 13.0867Z"
        fill="white" />
    <path
        d="M44.1937 5.84021C44.5982 6.52969 45.0294 7.35449 45.5415 8.34141C46.0536 9.32833 46.5254 10.3694 47.0242 11.4643C47.5229 12.5592 48.0214 13.6544 48.5068 14.7766C48.9923 15.8989 49.4504 16.9396 49.8546 17.885C50.2724 16.9386 50.7172 15.8978 51.2024 14.7766C51.6875 13.6554 52.1729 12.5461 52.6717 11.4643C53.1705 10.3825 53.669 9.34173 54.1544 8.34141C54.5592 7.48426 55.0093 6.64934 55.5027 5.84021H58.5482C58.7098 7.1921 58.8717 8.65225 59.0063 10.1933C59.141 11.7344 59.2892 13.3017 59.4108 14.9117C59.5323 16.5216 59.64 18.1291 59.7343 19.7651C59.8286 21.401 59.9229 22.9692 59.9905 24.5102H56.6079C56.6079 22.3472 56.4462 20.103 56.3517 17.7505C56.2571 15.398 56.0955 13.2219 55.9069 11.072C55.7046 11.4777 55.4757 11.9777 55.2061 12.5458C54.9366 13.1139 54.64 13.749 54.3435 14.425C54.047 15.1011 53.7235 15.7769 53.4136 16.5071C53.1037 17.2374 52.8071 17.981 52.5646 18.6568C52.322 19.3326 51.9985 20.0087 51.7559 20.536L51.1089 22.0366H48.5215C48.3463 21.6175 48.1307 21.1172 47.8881 20.5224L47.0658 18.6297C46.7693 17.9536 46.4594 17.2778 46.1493 16.5342C45.8391 15.7906 45.5292 15.1823 45.2193 14.4658C44.9094 13.7492 44.6262 13.1814 44.3567 12.5865L43.6693 11.1264C43.4671 13.276 43.3188 15.5066 43.2112 17.8049C43.1035 20.1033 43.0226 22.3475 42.955 24.5646H39.6255C39.6928 23.0236 39.7738 21.4294 39.8817 19.7787C39.9896 18.1281 40.0839 16.4801 40.2052 14.8578C40.3265 13.2355 40.4614 11.6537 40.6097 10.1261C40.7579 8.59839 40.9059 7.1921 41.0681 5.89434L44.1937 5.84021Z"
        fill="white" />
    <path
        d="M67.9832 22.2256C68.7504 22.2444 69.5176 22.1901 70.2746 22.0635V18.4537C70.0176 18.3833 69.7566 18.3291 69.4929 18.2916C69.1182 18.235 68.7396 18.2081 68.3607 18.2112C67.9998 18.2116 67.6395 18.2385 67.2825 18.2916C66.9361 18.3354 66.5992 18.4359 66.2852 18.589C65.9933 18.718 65.7451 18.9294 65.5709 19.1973C65.3842 19.4866 65.2901 19.8262 65.3013 20.1706C65.2675 20.4808 65.3187 20.7945 65.4493 21.0778C65.5799 21.3611 65.785 21.6033 66.0426 21.7784C66.6411 22.1036 67.317 22.2579 67.9968 22.2245L67.9832 22.2256ZM67.7414 10.0575C68.6565 10.0364 69.5684 10.1737 70.437 10.4632C71.1051 10.6917 71.7069 11.0818 72.1892 11.5989C72.6448 12.0967 72.9691 12.7009 73.1328 13.3565C73.3288 14.1019 73.4239 14.8703 73.4157 15.6411V24.1724C72.9169 24.2796 72.1622 24.4157 71.1513 24.5644C70.0179 24.7305 68.8732 24.8074 67.7278 24.7943C66.9484 24.8016 66.1706 24.72 65.4095 24.551C64.771 24.4161 64.166 24.154 63.6303 23.7804C63.1392 23.4319 62.7411 22.9677 62.4711 22.4285C62.1499 21.7582 61.9879 21.0224 61.9977 20.2788C61.9777 19.569 62.1402 18.866 62.4695 18.2375C62.7993 17.6811 63.2626 17.2164 63.8173 16.8856C64.387 16.5233 65.017 16.2669 65.6772 16.1286C66.7781 15.9124 67.9045 15.8577 69.0211 15.9662C69.447 16.0213 69.8698 16.098 70.2879 16.1961V15.6687C70.2921 15.3039 70.2472 14.9401 70.1543 14.5872C70.0686 14.2529 69.9072 13.943 69.6825 13.6815C69.4284 13.3874 69.1032 13.1637 68.7382 13.032C68.3044 12.8838 67.8486 12.8107 67.3904 12.8157C66.6952 12.8111 66.0008 12.8653 65.3147 12.9778C64.798 13.0638 64.2888 13.1904 63.7919 13.3565L63.3869 10.6532C63.9731 10.4652 64.5722 10.3206 65.1795 10.2207C66.0161 10.0701 66.8648 9.99751 67.7147 10.0039"
        fill="white" />
    <path
        d="M84.7227 13.357L83.5635 13.0732C83.0169 12.9706 82.4617 12.9208 81.9056 12.9245C81.5215 12.9285 81.1383 12.9644 80.7601 13.0317C80.3556 13.1121 80.0727 13.1657 79.9111 13.2209V24.5105H76.7168V11.0994C77.4852 10.8191 78.2737 10.5976 79.0754 10.4369C80.1079 10.2217 81.1602 10.1175 82.2147 10.1261H82.9694L83.8184 10.2333C84.0997 10.2717 84.3787 10.3258 84.654 10.3954L85.3011 10.5712L84.7227 13.357Z"
        fill="white" />
    <path
        d="M90.1277 15.9125L91.4754 14.5606C91.9336 14.0603 92.392 13.5737 92.8232 13.0734L94.171 11.6531L95.2088 10.45H99.0502L96.1388 13.5195C95.1415 14.601 94.144 15.6555 93.1467 16.6695C93.745 17.1749 94.3079 17.7211 94.8313 18.3041C95.4244 18.9394 96.0039 19.6559 96.5566 20.332C97.1093 21.0081 97.6214 21.779 98.1061 22.4951C98.5451 23.1356 98.95 23.7989 99.3192 24.4823H95.5593C95.2358 23.9279 94.8586 23.3466 94.4408 22.7384C94.023 22.1301 93.5648 21.5352 93.093 20.9537C92.6311 20.3882 92.1407 19.8468 91.6237 19.3314C91.1624 18.8457 90.6669 18.3939 90.141 17.9796V24.4432H86.8794V4.13722L90.1277 3.60986V15.9125Z"
        fill="white" />
    <path
        d="M109.037 16.0742C109.044 15.6432 108.98 15.214 108.849 14.8035C108.736 14.4186 108.548 14.0602 108.296 13.7491C108.056 13.4557 107.758 13.2163 107.42 13.0462C107.026 12.8701 106.598 12.7823 106.167 12.7892C105.701 12.7748 105.239 12.8721 104.819 13.073C104.453 13.2541 104.128 13.507 103.862 13.8166C103.6 14.1274 103.399 14.4852 103.269 14.871C103.124 15.2594 103.025 15.6631 102.972 16.0742H109.037ZM99.6028 17.5343C99.5782 16.424 99.761 15.3189 100.142 14.2761C100.479 13.4067 100.982 12.6121 101.625 11.9373C102.237 11.3246 102.972 10.8496 103.781 10.5439C104.548 10.2339 105.367 10.0733 106.194 10.0707C107.033 10.0237 107.873 10.1602 108.655 10.4706C109.437 10.7811 110.142 11.2581 110.722 11.8687C111.91 13.4086 112.486 15.3353 112.34 17.2766C112.34 17.4523 112.34 17.6551 112.34 17.8848C112.355 18.0873 112.355 18.2907 112.34 18.4931H102.972C102.984 18.9877 103.096 19.4748 103.3 19.9254C103.503 20.376 103.795 20.7809 104.158 21.116C105.04 21.7928 106.137 22.1243 107.245 22.0488C107.969 22.0573 108.692 21.9848 109.401 21.8325C109.93 21.7251 110.448 21.5713 110.95 21.373L111.382 24.0778C111.143 24.1928 110.895 24.2877 110.641 24.3616C110.288 24.4755 109.928 24.5659 109.563 24.632C109.158 24.7124 108.727 24.7807 108.215 24.8348C107.767 24.8867 107.317 24.9135 106.867 24.9152C105.757 24.9398 104.652 24.7421 103.619 24.3337C102.758 24.0042 101.984 23.4817 101.355 22.8063C100.749 22.1341 100.289 21.3419 100.007 20.4809C99.7269 19.5383 99.595 18.5576 99.6161 17.5743"
        fill="white" />
    <path
        d="M114.9 6.75963L118.148 6.21887V10.4233H123.149V13.127H118.148V18.9269C118.076 19.77 118.265 20.6148 118.688 21.3469C118.91 21.6067 119.191 21.8088 119.508 21.9359C119.825 22.063 120.168 22.1114 120.507 22.0768C121.038 22.0821 121.568 22.0185 122.083 21.8877C122.454 21.7923 122.818 21.6749 123.175 21.5361L123.701 24.1182C123.225 24.3223 122.733 24.4895 122.232 24.6185C121.528 24.8044 120.802 24.8909 120.075 24.8755C119.221 24.9008 118.371 24.7632 117.568 24.4698C116.918 24.2259 116.345 23.8102 115.91 23.2666C115.503 22.7126 115.223 22.0757 115.088 21.401C114.936 20.5856 114.873 19.756 114.899 18.9269L114.9 6.75963Z"
        fill="white" />
    <path d="M125.966 24.5102V5.84021H136.573V7.43541H127.785V14.0059H135.576V15.6012H127.785V24.5102H125.966Z"
        fill="white" />
    <path
        d="M149.148 17.5737C149.225 16.088 148.797 14.62 147.934 13.4098C147.538 12.9233 147.038 12.5313 146.471 12.2621C145.905 11.993 145.286 11.8533 144.659 11.8533C144.033 11.8533 143.414 11.993 142.847 12.2621C142.281 12.5313 141.781 12.9233 141.384 13.4098C140.522 14.62 140.094 16.088 140.171 17.5737C140.092 19.0555 140.52 20.5201 141.385 21.7242C141.784 22.2065 142.285 22.5945 142.851 22.8608C143.417 23.1272 144.034 23.2652 144.66 23.2652C145.285 23.2652 145.902 23.1272 146.468 22.8608C147.034 22.5945 147.535 22.2065 147.935 21.7242C148.799 20.5201 149.227 19.0555 149.148 17.5737H149.148ZM150.954 17.5737C150.965 18.5891 150.805 19.5992 150.482 20.5615C150.187 21.4089 149.729 22.1899 149.134 22.8599C148.601 23.4743 147.95 23.9754 147.22 24.3337C146.414 24.6913 145.541 24.8716 144.66 24.8624C143.782 24.8735 142.913 24.6936 142.112 24.335C141.373 23.9745 140.713 23.4688 140.171 22.8478C139.574 22.1787 139.116 21.3969 138.824 20.5481C138.494 19.5874 138.334 18.5762 138.352 17.5603C138.334 16.5444 138.494 15.5333 138.824 14.5725C139.121 13.7223 139.578 12.9374 140.171 12.2607C140.714 11.6512 141.374 11.1589 142.112 10.8137C142.913 10.4552 143.782 10.2753 144.66 10.2864C145.541 10.2767 146.414 10.4566 147.22 10.8137C147.981 11.159 148.661 11.6612 149.215 12.2875C149.808 12.9646 150.265 13.7493 150.563 14.5993C150.857 15.5621 150.989 16.5673 150.954 17.5737Z"
        fill="white" />
    <path
        d="M158.852 10.3152C159.394 10.3105 159.935 10.3553 160.469 10.4492C160.834 10.4941 161.192 10.5854 161.534 10.7209L161.184 12.1679C160.901 12.0596 160.607 11.9825 160.308 11.938C159.738 11.8465 159.16 11.8058 158.583 11.8163C157.972 11.8025 157.362 11.8569 156.763 11.9785C156.455 12.0429 156.153 12.1333 155.86 12.2488V24.4159H154.121V11.2346C155.616 10.5975 157.228 10.2843 158.852 10.3152Z"
        fill="white" />
    <path
        d="M169.243 24.8079C168.27 24.8316 167.303 24.6568 166.399 24.2942C165.607 23.978 164.9 23.4776 164.337 22.834C163.775 22.1585 163.354 21.3771 163.097 20.5357C162.794 19.5833 162.649 18.5876 162.666 17.5881C162.645 16.5761 162.786 15.5674 163.084 14.6002C163.373 13.7424 163.832 12.9516 164.432 12.2748C164.987 11.6347 165.678 11.1267 166.453 10.7876C167.304 10.4195 168.223 10.2397 169.149 10.2603C169.859 10.2586 170.567 10.3219 171.265 10.4494C171.791 10.5294 172.301 10.6937 172.775 10.9361L172.317 12.4367C171.934 12.2479 171.532 12.1028 171.117 12.0042C170.523 11.8824 169.917 11.828 169.311 11.8421C168.646 11.7945 167.98 11.9058 167.366 12.1666C166.752 12.4275 166.208 12.8305 165.78 13.3427C164.909 14.5791 164.486 16.077 164.58 17.5878C164.576 18.3532 164.666 19.1162 164.85 19.8591C165.006 20.5119 165.305 21.1216 165.726 21.6437C166.145 22.1534 166.681 22.5528 167.289 22.8072C168.026 23.1021 168.814 23.2447 169.607 23.2263C170.246 23.2389 170.882 23.1522 171.494 22.9694C171.877 22.847 172.251 22.698 172.613 22.5232L172.99 24.0238C172.51 24.271 171.997 24.4486 171.468 24.5512C170.762 24.7272 170.038 24.8135 169.311 24.8081"
        fill="white" />
    <path
        d="M184.204 16.4257C184.245 15.2144 183.89 14.0231 183.194 13.0325C182.869 12.6343 182.456 12.3172 181.988 12.1061C181.521 11.8949 181.011 11.7955 180.498 11.8156C179.919 11.8097 179.347 11.9393 178.827 12.1943C178.315 12.44 177.857 12.7845 177.479 13.208C177.104 13.6423 176.811 14.1418 176.616 14.6818C176.412 15.2427 176.29 15.83 176.252 16.4257H184.204ZM174.352 17.5343C174.33 16.4474 174.508 15.3657 174.878 14.3439C175.181 13.5049 175.639 12.7301 176.225 12.0592C176.765 11.4702 177.428 11.0084 178.166 10.7073C178.876 10.4129 179.636 10.261 180.403 10.2604C181.157 10.2304 181.908 10.3635 182.606 10.6504C183.303 10.9373 183.931 11.3715 184.447 11.9233C185.581 13.3885 186.134 15.224 185.996 17.0742V17.9124H176.239C176.195 19.3312 176.643 20.7215 177.506 21.8464C177.995 22.3355 178.585 22.7103 179.235 22.944C179.885 23.1777 180.579 23.2645 181.266 23.1983C182.026 23.2201 182.784 23.129 183.517 22.9279C183.93 22.7998 184.335 22.6463 184.73 22.4684L185.053 23.969C184.603 24.1957 184.128 24.3681 183.638 24.4827C182.847 24.6964 182.03 24.7966 181.212 24.7801C180.148 24.8095 179.09 24.6256 178.098 24.2393C177.28 23.9158 176.55 23.4015 175.969 22.7387C175.402 22.0673 174.993 21.2775 174.769 20.427C174.507 19.4761 174.38 18.4927 174.392 17.5062"
        fill="white" />
    <path d="M189.892 5.12378V5.77279H188.638V9.20651H187.897V5.77279H186.644V5.12378H189.892Z" fill="white" />
    <path
        d="M191.199 5.1238C191.279 5.27252 191.388 5.46171 191.482 5.67823L191.806 6.3543C191.927 6.59762 192.035 6.84093 192.143 7.08424L192.439 7.76032C192.519 7.55747 192.628 7.32783 192.722 7.08424L193.045 6.35404L193.368 5.67796C193.475 5.46171 193.57 5.27226 193.665 5.12354H194.327C194.311 5.44716 194.347 5.77121 194.434 6.08339C194.541 6.4213 194.434 6.75947 194.514 7.11077C194.594 7.46208 194.514 7.81365 194.581 8.16522C194.615 8.51141 194.615 8.86008 194.581 9.20627H193.854V7.74666C193.87 7.25801 193.839 6.76893 193.759 6.28651C193.759 6.3669 193.665 6.47569 193.611 6.61102C193.557 6.74634 193.49 6.868 193.422 7.01672L193.22 7.47628L193.018 7.92244L192.843 8.34154L192.695 8.66605H192.142C192.114 8.55184 192.069 8.44248 192.008 8.34154C191.955 8.21989 191.887 8.07116 191.82 7.92244C191.752 7.77372 191.698 7.625 191.631 7.46288C191.564 7.30076 191.497 7.15204 191.429 7.01672C191.36 6.88139 191.295 6.73294 191.24 6.59762C191.198 6.48847 191.143 6.38425 191.079 6.28678C191.079 6.76 191.011 7.24663 190.984 7.74692C190.957 8.24722 190.984 8.73384 190.984 9.20707H190.256V8.16576C190.245 7.80394 190.267 7.44186 190.323 7.08424C190.39 6.73267 190.323 6.38137 190.417 6.05686C190.48 5.74992 190.512 5.4374 190.512 5.12407L191.199 5.1238Z"
        fill="white" />
    <path
        d="M127.569 29.3367C127.586 29.0335 127.49 28.7349 127.3 28.4985C127.208 28.4009 127.098 28.3238 126.974 28.2723C126.851 28.2209 126.718 28.1962 126.585 28.2H125.965V30.1615C126.056 30.2298 126.156 30.2844 126.262 30.3236C126.394 30.3787 126.536 30.406 126.68 30.404C126.821 30.411 126.961 30.3783 127.084 30.3094C127.195 30.2562 127.292 30.1774 127.367 30.0795C127.438 29.9678 127.489 29.8442 127.516 29.7145C127.537 29.5666 127.537 29.4163 127.516 29.2684L127.569 29.3367ZM128.095 29.2684C128.094 29.4881 128.062 29.7066 128.001 29.9174C127.944 30.1083 127.853 30.287 127.731 30.4447C127.6 30.5895 127.439 30.7042 127.26 30.7813C127.081 30.8584 126.887 30.8959 126.692 30.8914C126.536 30.914 126.377 30.914 126.22 30.8914L125.91 30.7575V32.0014H125.359V27.8768L125.844 27.7696C126.073 27.7474 126.303 27.7474 126.531 27.7696C126.752 27.761 126.972 27.7975 127.178 27.8768C127.364 27.9518 127.532 28.0651 127.672 28.2096C127.811 28.354 127.919 28.5262 127.987 28.715C128.059 28.9332 128.095 29.1614 128.094 29.3911"
        fill="white" />
    <path
        d="M131.681 29.337C131.698 29.0399 131.618 28.7453 131.451 28.4988C131.375 28.3998 131.277 28.32 131.165 28.2661C131.052 28.2121 130.929 28.1853 130.804 28.188C130.681 28.1841 130.56 28.2105 130.449 28.2646C130.339 28.3188 130.243 28.3992 130.171 28.4988C130 28.7436 129.915 29.0384 129.928 29.337C129.915 29.6356 130 29.9304 130.171 30.1752C130.244 30.2732 130.34 30.3517 130.45 30.4036C130.561 30.4555 130.682 30.4792 130.804 30.4727C130.928 30.478 131.051 30.4538 131.164 30.4021C131.276 30.3504 131.375 30.2726 131.451 30.1752C131.618 29.9287 131.698 29.6341 131.681 29.337ZM132.26 29.337C132.269 29.5627 132.232 29.7879 132.153 29.9994C132.093 30.1859 131.994 30.3578 131.864 30.5043C131.735 30.6509 131.576 30.7689 131.398 30.851C131.211 30.9328 131.009 30.9743 130.805 30.9727C130.606 30.9757 130.408 30.9341 130.226 30.851C130.05 30.7747 129.893 30.6591 129.768 30.5131C129.627 30.3673 129.521 30.1918 129.458 29.9994C129.399 29.7839 129.376 29.56 129.391 29.337C129.39 29.1074 129.426 28.8791 129.497 28.6609C129.561 28.4686 129.667 28.293 129.807 28.1472C129.932 28.0012 130.089 27.8857 130.265 27.8093C130.451 27.7389 130.647 27.7026 130.845 27.7021C131.047 27.7024 131.248 27.7387 131.438 27.8093C131.616 27.8913 131.774 28.0093 131.904 28.1559C132.034 28.3025 132.132 28.4744 132.193 28.6609C132.27 28.8775 132.307 29.1069 132.3 29.337"
        fill="white" />
    <path
        d="M136.128 30.8914C136.021 30.6076 135.899 30.2694 135.778 29.9045C135.656 29.5395 135.535 29.1475 135.427 28.7554C135.333 29.1475 135.212 29.5395 135.09 29.9045C134.969 30.2694 134.848 30.6073 134.74 30.8914H134.255C134.079 30.4723 133.891 30.0127 133.716 29.5395C133.54 29.0663 133.378 28.4443 133.217 27.8226H133.823C133.846 28.0341 133.891 28.2425 133.957 28.4446C134.01 28.6745 134.078 28.8771 134.132 29.0936C134.186 29.3101 134.266 29.5261 134.334 29.7289L134.523 30.2697L134.725 29.6748L134.914 29.0395C134.947 28.8229 135.001 28.6101 135.075 28.4041C135.116 28.2013 135.182 28.0121 135.224 27.8229H135.682C135.702 28.0215 135.747 28.2167 135.815 28.4041L135.977 29.0395L136.166 29.6748L136.368 30.2697L136.556 29.7289C136.598 29.5114 136.661 29.2985 136.745 29.0936C136.798 28.8637 136.866 28.6611 136.934 28.4446C137.001 28.2281 137.028 28.0121 137.067 27.8226H137.647C137.485 28.4446 137.323 29.0124 137.148 29.5395C136.991 29.9988 136.811 30.4494 136.609 30.8914H136.128Z"
        fill="white" />
    <path
        d="M140.765 29.0394C140.772 28.8168 140.706 28.5979 140.576 28.4174C140.511 28.3377 140.429 28.2741 140.335 28.2319C140.241 28.1897 140.139 28.1699 140.037 28.1741C139.925 28.1676 139.814 28.1888 139.713 28.236C139.612 28.2832 139.524 28.3548 139.457 28.4445C139.388 28.5245 139.333 28.616 139.296 28.7149C139.256 28.8195 139.23 28.9284 139.216 29.0394H140.765ZM138.635 29.3368C138.63 29.0925 138.672 28.8494 138.756 28.6203C138.844 28.3476 139.018 28.1107 139.251 27.945C139.484 27.7793 139.765 27.6936 140.05 27.7009C140.229 27.6886 140.408 27.7175 140.574 27.7854C140.74 27.8534 140.888 27.9586 141.007 28.0929C141.253 28.4386 141.372 28.8588 141.344 29.2824V29.377C141.35 29.4125 141.35 29.4488 141.344 29.4842H139.228C139.221 29.7531 139.318 30.0142 139.497 30.2141C139.601 30.3071 139.723 30.3779 139.855 30.422C139.987 30.4662 140.127 30.4829 140.266 30.4711C140.431 30.4948 140.599 30.4948 140.764 30.4711C140.866 30.4497 140.965 30.418 141.061 30.3765L141.141 30.8361C141.026 30.8938 140.904 30.9348 140.777 30.9578C140.589 30.9804 140.399 30.9804 140.211 30.9578C139.972 30.9638 139.734 30.9225 139.51 30.8361C139.322 30.7674 139.155 30.651 139.025 30.4982C138.89 30.353 138.793 30.1766 138.742 29.9845C138.674 29.7751 138.642 29.5556 138.648 29.3355"
        fill="white" />
    <path
        d="M143.878 27.7145H144.511L144.405 28.2011H144.189C144.059 28.1851 143.928 28.1851 143.798 28.2011C143.695 28.1882 143.591 28.1882 143.488 28.2011H143.3V30.8229H142.732V27.9021C142.896 27.8488 143.063 27.8041 143.231 27.7681C143.446 27.7457 143.663 27.7457 143.878 27.7681"
        fill="white" />
    <path
        d="M147.597 29.0405C147.612 28.8171 147.545 28.5959 147.409 28.4186C147.344 28.338 147.262 28.2739 147.168 28.2316C147.075 28.1893 146.972 28.17 146.869 28.1753C146.754 28.1769 146.64 28.1998 146.533 28.2428C146.44 28.2951 146.358 28.3639 146.29 28.4457C146.221 28.5256 146.166 28.6171 146.128 28.716C146.122 28.8241 146.122 28.9325 146.128 29.0405H147.597ZM145.468 29.338C145.463 29.0936 145.504 28.8505 145.589 28.6214C145.662 28.4334 145.767 28.2596 145.899 28.1077C146.029 27.9735 146.185 27.8676 146.357 27.7969C146.525 27.7328 146.703 27.7007 146.883 27.7023C147.062 27.6879 147.242 27.7158 147.408 27.7839C147.574 27.852 147.722 27.9583 147.84 28.0943C148.092 28.4369 148.212 28.8597 148.177 29.2841V29.487H146.048C146.053 29.7562 146.153 30.015 146.331 30.2169C146.432 30.3102 146.551 30.3812 146.681 30.4255C146.811 30.4697 146.949 30.4862 147.085 30.4739C147.251 30.4976 147.419 30.4976 147.584 30.4739C147.686 30.4524 147.785 30.4207 147.881 30.3793L147.961 30.8389C147.85 30.8944 147.732 30.9353 147.61 30.9605C147.418 30.9824 147.223 30.9824 147.031 30.9605C146.791 30.9656 146.553 30.9243 146.33 30.8389C146.142 30.7701 145.975 30.6537 145.845 30.501C145.71 30.3558 145.612 30.1793 145.562 29.9873C145.494 29.7779 145.462 29.5584 145.467 29.3382"
        fill="white" />
    <path
        d="M151.587 28.3905C151.495 28.3251 151.395 28.2707 151.291 28.2284C151.157 28.1788 151.015 28.1558 150.873 28.1609C150.729 28.1576 150.587 28.1851 150.455 28.2413C150.344 28.2956 150.251 28.3798 150.185 28.4846C150.111 28.5958 150.056 28.7194 150.024 28.8496C150.009 28.9979 150.009 29.1474 150.024 29.2957C150.001 29.5998 150.097 29.9008 150.293 30.1339C150.383 30.2335 150.494 30.3118 150.617 30.3632C150.741 30.4147 150.874 30.438 151.008 30.4314H151.628L151.587 28.3905ZM151.587 26.295L152.14 26.2004V30.7559C151.977 30.8051 151.81 30.841 151.641 30.8631C151.413 30.8865 151.182 30.8865 150.954 30.8631C150.738 30.8639 150.524 30.8276 150.32 30.7559C150.134 30.6833 149.964 30.5728 149.821 30.4314C149.684 30.283 149.579 30.1083 149.512 29.9177C149.44 29.6995 149.404 29.4712 149.405 29.2416C149.4 29.0171 149.432 28.7934 149.499 28.5792C149.547 28.389 149.64 28.213 149.769 28.0655C149.888 27.9245 150.035 27.8095 150.2 27.7276C150.391 27.6431 150.598 27.6016 150.806 27.6059C151.08 27.6138 151.348 27.688 151.588 27.8222L151.587 26.295Z"
        fill="white" />
    <path
        d="M156.224 30.4048H156.83C156.966 30.4115 157.101 30.3883 157.227 30.337C157.353 30.2856 157.466 30.2072 157.558 30.1074C157.744 29.8695 157.836 29.5707 157.814 29.2692C157.829 29.1208 157.829 28.9714 157.814 28.823C157.794 28.689 157.738 28.563 157.652 28.458C157.587 28.3533 157.494 28.269 157.383 28.2147C157.251 28.1585 157.108 28.1311 156.965 28.1343C156.823 28.1293 156.681 28.1522 156.547 28.2018C156.447 28.2442 156.352 28.2986 156.264 28.364L156.224 30.4048ZM156.224 27.9173C156.32 27.8577 156.425 27.8125 156.534 27.7833C156.881 27.6625 157.261 27.6769 157.599 27.8237C157.769 27.8973 157.918 28.0137 158.03 28.1616C158.156 28.3137 158.252 28.4879 158.313 28.6753C158.369 28.8917 158.396 29.1144 158.393 29.3378C158.4 29.5679 158.364 29.7972 158.286 30.0138C158.223 30.2062 158.117 30.3818 157.977 30.5275C157.837 30.666 157.672 30.7762 157.491 30.852C157.283 30.9238 157.065 30.96 156.844 30.9592C156.616 30.9815 156.386 30.9815 156.157 30.9592C155.992 30.9385 155.83 30.9027 155.672 30.852V26.3888L156.225 26.2942L156.224 27.9173Z"
        fill="white" />
    <path
        d="M159.337 31.4729H159.715C159.897 31.4818 160.078 31.4294 160.227 31.3242C160.372 31.1928 160.487 31.0314 160.564 30.851C160.301 30.3559 160.067 29.8459 159.863 29.3236C159.645 28.7963 159.465 28.2542 159.324 27.7013H159.917C159.925 27.9008 159.98 28.0956 160.079 28.2691C160.134 28.4891 160.201 28.7058 160.281 28.9181L160.524 29.5805L160.793 30.2159C160.952 29.8051 161.087 29.3852 161.198 28.9586C161.304 28.5529 161.413 28.1338 161.507 27.7013H162.087C161.939 28.2825 161.777 28.8503 161.602 29.3911C161.427 29.9318 161.238 30.4321 161.036 30.9054C160.966 31.0643 160.885 31.2179 160.793 31.3649C160.717 31.4876 160.621 31.5972 160.51 31.6894C160.404 31.7706 160.285 31.8345 160.159 31.8786C160.012 31.9009 159.862 31.9009 159.715 31.8786H159.229L159.337 31.4729Z"
        fill="white" />
    <path
        d="M167.127 30.3106L166.966 29.9456L166.75 29.4724C166.67 29.2966 166.602 29.1208 166.508 28.945C166.413 28.7692 166.346 28.5934 166.265 28.4313C166.184 28.2692 166.117 28.1205 166.049 27.9852C166.006 27.8876 165.956 27.7928 165.901 27.7014C165.901 28.1746 165.821 28.6746 165.794 29.2288L165.781 30.8918H165.214V28.7296C165.197 28.3799 165.229 28.0296 165.308 27.6885C165.402 27.3506 165.308 27.0395 165.402 26.7421H165.913C166.02 26.9179 166.129 27.1207 166.25 27.364C166.372 27.6073 166.507 27.8506 166.628 28.121C166.749 28.3914 166.87 28.6347 166.978 28.9051L167.302 29.6216L167.612 28.9051L167.976 28.121C168.097 27.8506 168.218 27.6073 168.339 27.364C168.461 27.1207 168.582 26.9179 168.69 26.7421H169.202C169.336 28.094 169.431 29.4458 169.499 30.8926H168.932V29.2288C168.953 28.7173 168.917 28.205 168.825 27.7014L168.664 27.9852L168.475 28.3909L168.246 28.9046C168.154 29.075 168.073 29.2512 168.003 29.4319L167.788 29.9051L167.626 30.2701L167.127 30.3106Z"
        fill="white" />
    <path
        d="M173.004 29.0393C173.012 28.8167 172.946 28.5978 172.816 28.4173C172.751 28.3376 172.668 28.274 172.575 28.2318C172.481 28.1896 172.379 28.1698 172.277 28.174C172.165 28.1675 172.054 28.1888 171.953 28.2359C171.852 28.2831 171.764 28.3548 171.697 28.4444C171.628 28.5244 171.573 28.6159 171.536 28.7148C171.496 28.8194 171.469 28.9283 171.455 29.0393H173.004ZM170.861 29.3367C170.856 29.0924 170.898 28.8493 170.982 28.6202C171.055 28.4288 171.165 28.254 171.306 28.1065C171.432 27.9737 171.583 27.868 171.751 27.7957C171.919 27.7316 172.097 27.6995 172.277 27.7011C172.457 27.6886 172.639 27.7174 172.807 27.7853C172.975 27.8532 173.125 27.9585 173.247 28.0931C173.493 28.4388 173.612 28.8592 173.584 29.2829V29.4857H171.441C171.446 29.7549 171.546 30.0135 171.724 30.2154C171.827 30.3097 171.948 30.3814 172.081 30.4256C172.213 30.4699 172.353 30.4858 172.492 30.4724C172.653 30.4962 172.816 30.4962 172.977 30.4724C173.083 30.4505 173.187 30.4188 173.287 30.3778L173.367 30.8373C173.252 30.8951 173.13 30.936 173.004 30.959C172.815 30.9809 172.625 30.9809 172.437 30.959C172.194 30.9647 171.952 30.9232 171.724 30.8365C171.539 30.7613 171.374 30.6459 171.239 30.4986C171.113 30.3466 171.017 30.1724 170.956 29.9849C170.894 29.7741 170.862 29.5556 170.861 29.3359"
        fill="white" />
    <path
        d="M175.699 30.4858C175.87 30.4962 176.04 30.4687 176.198 30.4055C176.25 30.3756 176.292 30.3321 176.321 30.2796C176.349 30.2271 176.363 30.1677 176.36 30.108C176.361 30.0462 176.349 29.9848 176.323 29.9285C176.297 29.8723 176.259 29.8227 176.212 29.7835C176.038 29.6823 175.858 29.592 175.672 29.5131L175.336 29.3791C175.231 29.3381 175.135 29.2786 175.052 29.2034C174.971 29.1301 174.902 29.0432 174.85 28.9464C174.826 28.8305 174.826 28.7107 174.85 28.5948C174.847 28.4698 174.874 28.346 174.928 28.2332C174.982 28.1205 175.061 28.022 175.16 27.9458C175.398 27.7713 175.688 27.6853 175.982 27.7025H176.831L176.724 28.1757L176.441 28.0811C176.289 28.0638 176.135 28.0638 175.983 28.0811C175.843 28.0835 175.705 28.1157 175.579 28.1757C175.526 28.2049 175.481 28.2479 175.451 28.3003C175.42 28.3526 175.404 28.4123 175.404 28.4732C175.39 28.5309 175.39 28.5912 175.404 28.6489C175.433 28.7028 175.474 28.7487 175.525 28.7829C175.585 28.8342 175.654 28.8753 175.727 28.9046C175.817 28.9508 175.912 28.9868 176.01 29.0118L176.401 29.1876C176.511 29.2311 176.612 29.2953 176.697 29.3767C176.782 29.444 176.847 29.5327 176.886 29.6337C176.933 29.7544 176.956 29.883 176.953 30.0124C176.959 30.1392 176.933 30.2655 176.876 30.3791C176.819 30.4927 176.735 30.5899 176.63 30.6614C176.358 30.8251 176.043 30.9006 175.727 30.8776C175.513 30.9111 175.294 30.9111 175.08 30.8776C174.973 30.8534 174.869 30.8174 174.77 30.7704L174.864 30.2972L175.174 30.4044C175.354 30.4529 175.54 30.4756 175.727 30.4719"
        fill="white" />
    <path
        d="M180.39 29.337C180.407 29.0399 180.327 28.7453 180.16 28.4988C180.084 28.3998 179.986 28.32 179.874 28.2661C179.761 28.2121 179.638 28.1853 179.513 28.188C179.391 28.1841 179.269 28.2105 179.158 28.2646C179.048 28.3188 178.952 28.3992 178.88 28.4988C178.709 28.7436 178.624 29.0384 178.637 29.337C178.624 29.6356 178.709 29.9304 178.88 30.1752C178.953 30.2732 179.049 30.3517 179.16 30.4036C179.27 30.4555 179.392 30.4792 179.513 30.4727C179.637 30.478 179.76 30.4538 179.873 30.4021C179.985 30.3504 180.084 30.2726 180.16 30.1752C180.327 29.9287 180.407 29.6341 180.39 29.337ZM180.969 29.337C180.978 29.5627 180.941 29.7879 180.862 29.9994C180.802 30.1859 180.703 30.3578 180.574 30.5043C180.444 30.6509 180.285 30.7689 180.108 30.851C179.921 30.9328 179.718 30.9743 179.514 30.9727C179.315 30.9757 179.117 30.9341 178.935 30.851C178.759 30.7747 178.602 30.6591 178.477 30.5131C178.34 30.3648 178.234 30.19 178.167 29.9994C178.094 29.7862 178.058 29.5623 178.06 29.337C178.06 29.1074 178.096 28.8791 178.167 28.6609C178.238 28.472 178.343 28.2978 178.477 28.1472C178.602 28.0012 178.759 27.8857 178.935 27.8093C179.12 27.7389 179.316 27.7026 179.514 27.7021C179.717 27.7024 179.918 27.7387 180.108 27.8093C180.285 27.8913 180.444 28.0093 180.574 28.1559C180.704 28.3025 180.802 28.4744 180.862 28.6609C180.94 28.8775 180.976 29.1069 180.969 29.337Z"
        fill="white" />
    <path
        d="M184.298 28.2013L183.962 28.58L183.517 29.1478L183.045 29.7831C182.899 29.9875 182.764 30.1996 182.641 30.4185H184.339V30.8917H181.953V30.5131C182.06 30.3373 182.169 30.1481 182.317 29.9319L182.748 29.3099C182.897 29.0937 183.058 28.9042 183.193 28.715L183.571 28.2418H182.048V27.7822H184.285L184.298 28.2013Z"
        fill="white" />
    <path
        d="M186.199 30.8916H185.646V27.7687H186.199V30.8916ZM185.916 27.2143C185.823 27.2096 185.733 27.1766 185.66 27.1197C185.598 27.043 185.565 26.9476 185.565 26.8493C185.565 26.751 185.598 26.6557 185.66 26.5789C185.73 26.5165 185.822 26.4827 185.916 26.4843C185.963 26.4813 186.01 26.4882 186.054 26.5044C186.098 26.5207 186.138 26.5461 186.172 26.5789C186.227 26.6292 186.265 26.6951 186.282 26.768C186.299 26.8408 186.292 26.9169 186.265 26.9862C186.237 27.0554 186.188 27.1144 186.126 27.1552C186.063 27.196 185.99 27.2166 185.916 27.2143Z"
        fill="white" />
</svg>